<svg xmlns="http://www.w3.org/2000/svg" width="24" height="24" fill="none" viewBox="0 0 24 24"><mask id="mask0_4004_3996" width="24" height="24" x="0" y="0" maskUnits="userSpaceOnUse" style="mask-type:alpha"><path fill="#d9d9d9" d="M0 0h24v24H0Z"/></mask><g mask="url(#mask0_4004_3996)"><path fill="#174148" d="M7 9q-.824 0-1.412-.588A1.93 1.93 0 0 1 5 7q0-.824.588-1.412A1.93 1.93 0 0 1 7 5q.824 0 1.412.588Q9 6.175 9 7t-.588 1.412A1.93 1.93 0 0 1 7 9M5 22a.97.97 0 0 1-.713-.288A.97.97 0 0 1 4 21q-.824 0-1.413-.587A1.93 1.93 0 0 1 2 19v-6h3v-.75q0-.95.65-1.6t1.6-.65q.5 0 .925.2t.775.55l1.4 1.55q.2.2.388.375.187.175.412.325H18V4.85a.82.82 0 0 0-.25-.6.82.82 0 0 0-.6-.25q-.15 0-.287.063a.9.9 0 0 0-.262.188l-1.251 1.249q.125.425.05.838-.075.412-.3.762l-2.75-2.8q.35-.225.75-.287.4-.063.8.087l1.25-1.25q.4-.4.912-.625Q16.576 2 17.15 2q1.2 0 2.025.825T20 4.85V13h2v6q0 .824-.587 1.413A1.93 1.93 0 0 1 20 21q0 .424-.288.712A.97.97 0 0 1 19 22Z"/></g></svg>