<svg xmlns="http://www.w3.org/2000/svg" width="24" height="24" fill="none" viewBox="0 0 24 24"><mask id="mask0_4004_3999" width="24" height="24" x="0" y="0" maskUnits="userSpaceOnUse" style="mask-type:alpha"><path fill="#d9d9d9" d="M0 0h24v24H0Z"/></mask><g mask="url(#mask0_4004_3999)"><path fill="#174148" d="m12 22-5-5 1.4-1.4 2.6 2.575V8h2v10.175l2.6-2.575L17 17Zm-8.35-4.5a10.2 10.2 0 0 1-1.225-2.625A9.8 9.8 0 0 1 2 12q0-2.075.788-3.9a10.1 10.1 0 0 1 2.137-3.175q1.35-1.35 3.175-2.137A9.7 9.7 0 0 1 12 2q2.075 0 3.9.788a10.1 10.1 0 0 1 3.175 2.137q1.35 1.35 2.137 3.175A9.7 9.7 0 0 1 22 12q0 1.475-.425 2.875A10.2 10.2 0 0 1 20.35 17.5l-1.45-1.45a7.7 7.7 0 0 0 .825-1.95A8 8 0 0 0 20 12q0-3.35-2.325-5.675T12 4 6.325 6.325 4 12q0 1.076.275 2.1.274 1.024.825 1.95Z"/></g></svg>