<svg xmlns="http://www.w3.org/2000/svg" width="24" height="24" fill="none" viewBox="0 0 24 24"><mask id="mask0_4004_4003" width="24" height="24" x="0" y="0" maskUnits="userSpaceOnUse" style="mask-type:alpha"><path fill="#d9d9d9" d="M0 0h24v24H0Z"/></mask><g mask="url(#mask0_4004_4003)"><path fill="#174148" d="M11 17h2v-6h-2Zm1-8q.424 0 .713-.287A.97.97 0 0 0 13 8a.97.97 0 0 0-.287-.713A.97.97 0 0 0 12 7a.97.97 0 0 0-.713.287A.97.97 0 0 0 11 8q0 .424.287.713Q11.576 9 12 9m0 13a9.7 9.7 0 0 1-3.9-.788 10.1 10.1 0 0 1-3.175-2.137q-1.35-1.35-2.137-3.175A9.7 9.7 0 0 1 2 12q0-2.075.788-3.9a10.1 10.1 0 0 1 2.137-3.175q1.35-1.35 3.175-2.137A9.7 9.7 0 0 1 12 2q2.075 0 3.9.788a10.1 10.1 0 0 1 3.175 2.137q1.35 1.35 2.137 3.175A9.7 9.7 0 0 1 22 12a9.7 9.7 0 0 1-.788 3.9 10.1 10.1 0 0 1-2.137 3.175q-1.35 1.35-3.175 2.137A9.7 9.7 0 0 1 12 22m0-2q3.35 0 5.675-2.325T20 12t-2.325-5.675T12 4 6.325 6.325 4 12t2.325 5.675T12 20"/></g></svg>