<svg xmlns="http://www.w3.org/2000/svg" width="24" height="24" fill="none" viewBox="0 0 24 24"><mask id="mask0_4004_3998" width="24" height="24" x="0" y="0" maskUnits="userSpaceOnUse" style="mask-type:alpha"><path fill="#d9d9d9" d="M0 0h24v24H0Z"/></mask><g mask="url(#mask0_4004_3998)"><path fill="#174148" d="M7.5 11a3.37 3.37 0 0 1-2.475-1.025A3.37 3.37 0 0 1 4 7.5q0-1.45 1.025-2.475A3.37 3.37 0 0 1 7.5 4q1.45 0 2.475 1.025A3.37 3.37 0 0 1 11 7.5q0 1.45-1.025 2.475A3.37 3.37 0 0 1 7.5 11m0-2q.624 0 1.063-.438Q9 8.127 9 7.5q0-.624-.438-1.063A1.45 1.45 0 0 0 7.5 6q-.624.001-1.061.439A1.45 1.45 0 0 0 6 7.5q0 .624.438 1.061Q6.874 9 7.5 9m9 11a3.37 3.37 0 0 1-2.475-1.025A3.37 3.37 0 0 1 13 16.5q0-1.45 1.025-2.475A3.37 3.37 0 0 1 16.5 13q1.45 0 2.475 1.025A3.37 3.37 0 0 1 20 16.5q0 1.45-1.025 2.475A3.37 3.37 0 0 1 16.5 20m0-2q.625 0 1.063-.438Q18 17.126 18 16.5t-.438-1.063A1.45 1.45 0 0 0 16.5 15q-.624.002-1.061.438A1.45 1.45 0 0 0 15 16.5q0 .625.438 1.063.437.437 1.062.437M5.4 20 4 18.6 18.6 4 20 5.4Z"/></g></svg>