<svg xmlns="http://www.w3.org/2000/svg" width="24" height="24" fill="none" viewBox="0 0 24 24"><mask id="mask0_4004_4000" width="24" height="24" x="0" y="0" maskUnits="userSpaceOnUse" style="mask-type:alpha"><path fill="#d9d9d9" d="M0 0h24v24H0Z"/></mask><g mask="url(#mask0_4004_4000)"><path fill="#174148" d="M6 21v-2l.412-.25a5 5 0 0 0 .9-.738q.488-.487.888-1.25T8.6 15q0-.274-.037-.525A7 7 0 0 0 8.475 14H6v-2h1.5a27 27 0 0 1-1.013-1.738Q6 9.35 6 8q0-2.3 1.6-3.9t3.9-1.6q1.774 0 3.15.975A5.45 5.45 0 0 1 16.625 6l-1.85.775a3.5 3.5 0 0 0-1.263-1.638A3.36 3.36 0 0 0 11.5 4.5q-1.45.002-2.475 1.026A3.37 3.37 0 0 0 8 8q0 1.2.6 2t1.225 2H14v2h-3.475q.05.225.063.475.012.25.012.525 0 1.25-.438 2.25A7.3 7.3 0 0 1 9.1 19H14q1.002 0 1.526-.525.525-.525.725-1.35L18 18a3.42 3.42 0 0 1-1.413 2.188Q15.45 21 14 21Z"/></g></svg>