<svg xmlns="http://www.w3.org/2000/svg" width="24" height="24" fill="none" viewBox="0 0 24 24"><mask id="mask0_4004_3997" width="24" height="24" x="0" y="0" maskUnits="userSpaceOnUse" style="mask-type:alpha"><path fill="#d9d9d9" d="M0 0h24v24H0Z"/></mask><g mask="url(#mask0_4004_3997)"><path fill="#174148" d="m21.4 14.25-7.15 7.15q-.3.3-.675.45t-.75.15-.75-.15-.675-.45l-8.825-8.825a1.975 1.975 0 0 1-.575-1.4V4q0-.824.587-1.413A1.93 1.93 0 0 1 4 2h7.175q.4 0 .775.163.375.162.65.437l8.8 8.825q.3.3.438.675.137.375.137.75t-.138.738a1.9 1.9 0 0 1-.438.662M6.5 8q.624 0 1.063-.438Q8 7.127 8 6.5q0-.624-.438-1.063A1.45 1.45 0 0 0 6.5 5q-.624.001-1.061.439A1.45 1.45 0 0 0 5 6.5q0 .624.438 1.061Q5.874 8 6.5 8"/></g></svg>